# xmcd CD database file
#
# Track frame offsets:
#	150
#	21505
#	44985
#	67025
#	89180
#	118038
#	130165
#	139368
#	159353
#	197453
#	222415
#
# Disc length: 3322 seconds
#
# Revision: 0
# Processed by: cddbd v1.5.2PL0 Copyright (c) Steve Scherf et al.
# Submitted via: CDex 1.51
#
DISCID=b20cf80b
DTITLE=Various Artist - Stars of Jazz - Volume Two
DYEAR=1972
DGENRE=Jazz
TTITLE0=Royal Garden Blues
TTITLE1=Sweet Lorraine
TTITLE2=Kansas City Blues
TTITLE3=Blue Again
TTITLE4=C Jam Blues
TTITLE5=Yancey Special
TTITLE6=I'm Gonna Sit Right Down And Write Myself A Letter
TTITLE7=Washboard Blues
TTITLE8=Bill Bailey Won't You Please Come Home
TTITLE9=When The Saints Go Marching In
TTITLE10=Warmup: Kansas City Blues
EXTD=YEAR: 1972
EXTT0=
EXTT1=
EXTT2=
EXTT3=
EXTT4=
EXTT5=
EXTT6=
EXTT7=
EXTT8=
EXTT9=
EXTT10=
PLAYORDER=
